o cushion
v 0.500000 -0.500000 -0.500000
v -0.500000 -0.500000 -0.500000
v -0.500000 -0.250000 -0.500000
v -0.500000 -0.250000 0.500000
v 0.500000 -0.250000 0.500000
v 0.500000 -0.250000 -0.500000
v 0.500000 -0.500000 0.500000
v -0.500000 -0.500000 0.500000
vn -0.0000 1.0000 -0.0000
vn 1.0000 -0.0000 -0.0000
vn -1.0000 -0.0000 -0.0000
vn -0.0000 -0.0000 -1.0000
vn -0.0000 -0.0000 1.0000
vn -0.0000 -1.0000 -0.0000
vt 0.250000 1.000000
vt 0.500000 1.000000
vt 0.500000 0.750000
vt 0.250000 0.750000
vt 0.000000 0.687500
vt 0.250000 0.687500
vt 0.000000 0.750000
vt 0.500000 0.687500
vt 0.750000 0.687500
vt 0.750000 0.750000
vt 1.000000 0.687500
vt 1.000000 0.750000
vt 0.750000 1.000000
usemtl entity/cushion/white_cushion
s off
f 3/1/1 4/2/1 5/3/1 6/4/1
f 7/5/2 1/6/2 6/4/2 5/7/2
f 2/8/3 8/9/3 4/10/3 3/3/3
f 1/6/4 2/8/4 3/3/4 6/4/4
f 8/9/5 7/11/5 5/12/5 4/10/5
f 8/2/6 2/3/6 1/10/6 7/13/6
